<?xml version="1.0" encoding="UTF-8" standalone="no"?>
<!-- Created with Inkscape (http://www.inkscape.org/) -->

<svg
   width="62.626526mm"
   height="61.980385mm"
   viewBox="0 0 62.626526 61.980385"
   version="1.1"
   id="svg1"
   inkscape:export-filename="LOGO Vblanc.svg"
   inkscape:export-xdpi="96"
   inkscape:export-ydpi="96"
   xmlns:inkscape="http://www.inkscape.org/namespaces/inkscape"
   xmlns:sodipodi="http://sodipodi.sourceforge.net/DTD/sodipodi-0.dtd"
   xmlns="http://www.w3.org/2000/svg"
   xmlns:svg="http://www.w3.org/2000/svg">
  <sodipodi:namedview
     id="namedview1"
     pagecolor="#ffffff"
     bordercolor="#000000"
     borderopacity="0.25"
     inkscape:showpageshadow="2"
     inkscape:pageopacity="0.0"
     inkscape:pagecheckerboard="0"
     inkscape:deskcolor="#d1d1d1"
     inkscape:document-units="mm">
    <inkscape:page
       x="0"
       y="0"
       width="62.626526"
       height="61.980385"
       id="page2"
       margin="0"
       bleed="0" />
  </sodipodi:namedview>
  <defs
     id="defs1">
    <inkscape:path-effect
       effect="bspline"
       id="path-effect37"
       is_visible="true"
       lpeversion="1.3"
       weight="33.333333"
       steps="2"
       helper_size="0"
       apply_no_weight="true"
       apply_with_weight="true"
       only_selected="false"
       uniform="false" />
    <clipPath
       clipPathUnits="userSpaceOnUse"
       id="clipPath5-1">
      <g
         inkscape:label="Clip"
         id="use5-8">
        <path
           style="opacity:0.51;fill:#ffba00;fill-opacity:0.444668;stroke-width:0.264583"
           d="m 75.131506,171.14794 c 10.758905,12.83836 21.517808,25.67672 32.276714,38.51507 17.08801,-11.21118 34.17534,-22.42192 51.26301,-33.63288 -3.79734,-19.52915 -7.59452,-39.05753 -11.39178,-58.5863 -22.06071,-0.81371 -44.12055,-1.62739 -66.18082,-2.44109 -7.504261,10.6687 -15.00822,21.33698 -22.51233,32.00548 5.515179,8.04673 11.030138,16.09315 16.545206,24.13972 z"
           id="path2"
           transform="matrix(0.91216515,0,0,1.0441482,-24.086947,21.923962)" />
      </g>
    </clipPath>
    <inkscape:path-effect
       effect="bspline"
       id="path-effect39"
       is_visible="true"
       lpeversion="1.3"
       weight="33.333333"
       steps="2"
       helper_size="0"
       apply_no_weight="true"
       apply_with_weight="true"
       only_selected="false"
       uniform="false" />
    <inkscape:path-effect
       effect="bspline"
       id="path-effect41"
       is_visible="true"
       lpeversion="1.3"
       weight="33.333333"
       steps="2"
       helper_size="0"
       apply_no_weight="true"
       apply_with_weight="true"
       only_selected="false"
       uniform="false" />
    <inkscape:path-effect
       effect="bspline"
       id="path-effect43"
       is_visible="true"
       lpeversion="1.3"
       weight="33.333333"
       steps="2"
       helper_size="0"
       apply_no_weight="true"
       apply_with_weight="true"
       only_selected="false"
       uniform="false" />
  </defs>
  <g
     inkscape:label="Calque 1"
     inkscape:groupmode="layer"
     id="layer1"
     transform="translate(-265.90623,-65.791203)">
    <path
       style="fill:#ffff00;fill-opacity:1;stroke-width:0;stroke-dasharray:none"
       d="m 161.88082,21.427396 c -5.19863,-1.808219 -10.17123,-0.632877 -15.9576,-0.406856 -5.78637,0.226021 -12.38624,-0.497253 -17.5397,2.034313 -5.15346,2.531567 -8.86023,8.31775 -10.62324,13.787664 -1.76302,5.469914 -1.5822,10.623235 0.94936,16.228775 2.53155,5.60554 7.41365,11.662956 13.15481,15.234199 5.74116,3.571242 12.34103,4.656152 20.56852,1.084837 8.2275,-3.571315 18.0821,-11.79855 22.60264,-18.669836 4.52054,-6.871287 3.70686,-12.386247 0.58762,-17.539719 -3.11923,-5.153472 -8.54378,-9.945157 -13.74241,-11.753377 z"
       id="path28"
       inkscape:path-effect="#path-effect37"
       inkscape:original-d="m 161.65479,18.443835 c -4.9726,1.175343 -9.9452,2.350685 -14.91781,3.526028 -6.60013,-0.723302 -13.2,-1.446576 -19.79999,-2.169863 -3.70693,5.786417 -7.4137,11.572603 -11.12055,17.358903 0.18082,5.153528 0.36164,10.306849 0.54246,15.460273 4.88229,6.057657 9.76439,12.11507 14.64658,18.172605 6.60013,1.084953 13.2,2.169861 19.8,3.254793 9.85499,-8.22756 19.70959,-16.454795 29.56438,-24.682191 -0.81371,-5.515178 -1.6274,-11.030137 -2.44109,-16.545205 -5.42477,-4.791876 -10.84932,-9.583562 -16.27398,-14.375343 z"
       transform="matrix(0.94684218,-0.38633114,0.3905427,0.95716411,140.1103,112.95948)" />
    <g
       id="g30"
       clip-path="url(#clipPath5-1)"
       transform="matrix(0,0.70999651,0.70999651,0,166.41854,40.809457)"
       style="fill:#ffcf13;fill-opacity:0.756539;stroke-width:0;stroke-dasharray:none">
      <g
         inkscape:label="Clip"
         id="g29"
         style="fill:#ffcf13;fill-opacity:0.756539;stroke-width:0;stroke-dasharray:none">
        <path
           style="opacity:0.51;fill:#ffcf13;fill-opacity:0.756539;stroke-width:0;stroke-dasharray:none"
           d="m 77.753426,173.54383 c 8.136986,10.44247 18.895892,23.28083 32.819344,24.09441 13.92346,0.81359 31.01079,-10.39715 37.65596,-25.76721 6.64517,-15.37005 2.84798,-34.89843 -10.081,-45.06967 -12.92899,-10.17124 -34.98883,-10.98492 -49.771094,-6.05742 -14.782263,4.9275 -22.286223,15.59578 -23.280691,24.9534 -0.994468,9.35761 4.520494,17.40403 12.657481,27.84649 z"
           id="path29"
           transform="matrix(0.91216515,0,0,1.0441482,-24.086947,21.923962)"
           inkscape:original-d="m 75.131506,171.14794 c 10.758905,12.83836 21.517808,25.67672 32.276714,38.51507 17.08801,-11.21118 34.17534,-22.42192 51.26301,-33.63288 -3.79734,-19.52915 -7.59452,-39.05753 -11.39178,-58.5863 -22.06071,-0.81371 -44.12055,-1.62739 -66.18082,-2.44109 -7.504261,10.6687 -15.00822,21.33698 -22.51233,32.00548 5.515179,8.04673 11.030138,16.09315 16.545206,24.13972 z"
           inkscape:path-effect="#path-effect39" />
      </g>
    </g>
    <path
       style="opacity:0.74;fill:#ffcf13;fill-opacity:0.716298;stroke-width:0;stroke-dasharray:none"
       d="m 127.56986,104.24384 c -5.42466,4.70137 -11.30137,10.84931 -14.19452,17.31376 -2.89315,6.46445 -2.80274,13.24514 5.15358,17.99174 7.95633,4.74661 23.77793,7.45888 34.08482,3.07384 10.3069,-4.38505 15.09859,-15.86702 12.56698,-25.31504 -2.53161,-9.44802 -12.3862,-16.86157 -19.79995,-18.940986 -7.41375,-2.079419 -12.38625,1.175311 -17.81091,5.876686 z"
       id="path30"
       inkscape:path-effect="#path-effect41"
       inkscape:original-d="m 128.02192,102.79726 c -5.87672,6.14795 -11.75343,12.29589 -17.63014,18.44383 0.0904,6.78096 0.18082,13.56165 0.27123,20.34247 15.82224,2.71238 31.64384,5.42466 47.46575,8.13699 4.79188,-11.48242 9.58357,-22.96439 14.37535,-34.44658 -9.855,-7.41385 -19.70959,-14.8274 -29.56439,-22.241095 -4.9727,3.254859 -9.9452,6.509589 -14.9178,9.764385 z"
       transform="matrix(0.63123615,0.73612615,-0.7177655,0.64738336,297.31911,-84.026632)" />
    <path
       style="fill:#ffffff;fill-opacity:1;stroke:#ffffff;stroke-width:0.853741;stroke-dasharray:none;stroke-opacity:0.326962"
       d="m 72.928377,179.05251 c -2.860877,1.19869 -4.139482,4.71485 -2.477249,7.24011 1.662232,2.52526 6.265112,4.05955 9.126001,2.86082 2.86089,-1.19873 3.979647,-5.13036 2.317417,-7.65561 -1.66223,-2.52525 -6.105291,-3.64401 -8.966169,-2.44532 z"
       id="path31"
       inkscape:path-effect="#path-effect43"
       inkscape:original-d="m 71.346104,176.73504 c -1.278604,3.51616 -2.557208,7.03232 -3.835813,10.54848 4.603068,1.53436 9.20595,3.06865 13.808925,4.60298 1.118801,-3.93179 2.237557,-7.86342 3.356337,-11.79512 -4.443238,-1.1188 -8.886298,-2.23756 -13.329449,-3.35634 z"
       transform="matrix(1.0988242,0,0,1.2485876,217.33251,-132.80211)" />
    <path
       style="fill:#ffffff;fill-opacity:1;stroke:#ffffff;stroke-width:1;stroke-dasharray:none;stroke-opacity:0.326962"
       id="path32"
       d="m 289.87832,94.198059 c -0.0496,-0.0416 -0.0997,-0.0827 -0.15029,-0.12305 -0.11392,-0.0918 -0.23914,-0.16805 -0.36543,-0.24191 -0.19546,-0.11397 -0.40716,-0.19439 -0.62158,-0.26585 -0.27736,-0.0909 -0.56594,-0.13887 -0.85439,-0.18015 -0.30046,-0.0447 -0.60386,-0.0619 -0.90729,-0.07 -0.28976,-0.008 -0.57921,0.009 -0.86787,0.0315 -0.28089,0.0207 -0.55863,0.0671 -0.83399,0.12423 -0.26639,0.0559 -0.52639,0.13488 -0.78169,0.22766 -0.27786,0.10064 -0.52961,0.25422 -0.77093,0.42064 -0.23636,0.16909 -0.44159,0.37364 -0.63069,0.59175 -0.19013,0.21939 -0.33303,0.4707 -0.456,0.731 -0.11987,0.26623 -0.18859,0.54873 -0.23194,0.83563 -0.0376,0.29689 -0.013,0.59472 0.0325,0.88896 0.0464,0.28645 0.15228,0.55727 0.26745,0.82254 0.10923,0.25747 0.26079,0.49294 0.42344,0.72016 0.17975,0.25256 0.40612,0.46308 0.65129,0.65245 0.22009,0.16425 0.45933,0.29959 0.70535,0.42187 0.25566,0.12595 0.52865,0.20869 0.80478,0.277701 0.27277,0.0617 0.5505,0.0969 0.82892,0.1215 0.27005,0.0233 0.54112,0.028 0.81202,0.0295 0.2584,-3.3e-4 0.51677,-0.007 0.77491,-0.0184 0.25391,-0.01 0.5073,-0.0274 0.76058,-0.0469 0.25672,-0.0204 0.51361,-0.0386 0.7706,-0.0554 0.26513,-0.0171 0.53036,-0.0324 0.79577,-0.0449 0.22624,-0.0119 0.45241,-0.006 0.67826,0.01 0.19484,0.0115 0.38604,0.0486 0.57456,0.0966 0.1986,0.0515 0.39212,0.11959 0.58461,0.18954 0.16126,0.0587 0.31452,0.1351 0.46293,0.22 0.13332,0.0803 0.24774,0.187 0.36047,0.29261 0.1366,0.12906 0.25926,0.27064 0.37357,0.41894 0.12612,0.16545 0.23554,0.34227 0.34044,0.52125 0.10842,0.18093 0.19824,0.37116 0.28227,0.56395 0.0783,0.17956 0.13611,0.36635 0.18268,0.55601 0.0479,0.19801 0.076,0.39975 0.0966,0.60206 0.0198,0.19082 0.0246,0.38206 0.0158,0.57351 -0.008,0.1725 -0.0391,0.34231 -0.0765,0.5106 -0.0287,0.15575 -0.0912,0.30012 -0.15534,0.4441 -0.0459,0.12827 -0.13005,0.22675 -0.22036,0.32634 -0.12898,0.14338 -0.27474,0.26984 -0.42676,0.38872 -0.16944,0.12857 -0.34957,0.24274 -0.53393,0.34924 -0.19276,0.11316 -0.39348,0.21105 -0.59855,0.30033 -0.21581,0.0881 -0.43678,0.16308 -0.65991,0.23087 -0.22689,0.0687 -0.45772,0.12304 -0.69083,0.1666 -0.26031,0.0467 -0.52396,0.0714 -0.78776,0.0887 -0.2738,0.018 -0.54741,0.004 -0.81999,-0.0222 -0.29002,-0.0335 -0.57644,-0.0903 -0.86013,-0.15747 -0.28528,-0.0671 -0.56149,-0.16292 -0.83342,-0.27 -0.27027,-0.10823 -0.52979,-0.23989 -0.7847,-0.37912 -0.23519,-0.12848 -0.45613,-0.27973 -0.67361,-0.435 -0.20352,-0.14353 -0.39678,-0.29989 -0.58422,-0.46306 -0.17028,-0.14805 -0.32918,-0.30764 -0.48179,-0.47312 -0.14291,-0.15465 -0.27401,-0.31923 -0.40285,-0.48527 -0.1114,-0.14396 -0.20944,-0.29722 -0.30523,-0.4515 -0.0925,-0.14945 -0.17371,-0.30496 -0.25168,-0.4621 -0.0633,-0.12685 -0.11979,-0.25675 -0.17439,-0.38739 -0.50173,-1.19708 -2.22034,-0.49814 -1.71861,0.69895 v 0 c 0.0699,0.16652 0.14235,0.3321 0.22311,0.49387 0.10391,0.20874 0.21297,0.41496 0.33612,0.61345 0.12953,0.20798 0.26324,0.41377 0.41399,0.60764 0.16139,0.2076 0.32628,0.4128 0.50532,0.60609 0.19863,0.21417 0.40503,0.42117 0.62619,0.61304 0.23255,0.20168 0.47206,0.39529 0.72403,0.5732 0.27867,0.19838 0.56269,0.39015 0.86401,0.55409 0.32381,0.17594 0.65361,0.3419 0.997,0.47804 0.35542,0.13876 0.71666,0.26254 1.08913,0.3497 0.36745,0.0859 0.73834,0.15881 1.11413,0.19912 0.3736,0.0346 0.74871,0.0518 1.12372,0.0264 0.33923,-0.0231 0.6782,-0.0559 1.01276,-0.11748 0.30046,-0.0575 0.59851,-0.12658 0.89101,-0.216 0.29212,-0.0898 0.58182,-0.18792 0.86347,-0.30625 0.27002,-0.11862 0.53486,-0.24786 0.78906,-0.39702 0.25959,-0.15172 0.51383,-0.31308 0.75129,-0.49713 0.23773,-0.18878 0.46586,-0.38923 0.66715,-0.61621 0.21059,-0.24167 0.40154,-0.49879 0.52203,-0.79706 0.11217,-0.25509 0.21329,-0.51502 0.26803,-0.78879 0.0587,-0.27032 0.10509,-0.54343 0.1167,-0.82017 0.0112,-0.27956 0.006,-0.55908 -0.0239,-0.83759 -0.0305,-0.28696 -0.0715,-0.57305 -0.14101,-0.8537 -0.0728,-0.2868 -0.1606,-0.56981 -0.28012,-0.8415 -0.11352,-0.25903 -0.23593,-0.5142 -0.38119,-0.75772 -0.14553,-0.24675 -0.29808,-0.48993 -0.47362,-0.71736 -0.17591,-0.224691 -0.36306,-0.440521 -0.57237,-0.636021 -0.21992,-0.20373 -0.44878,-0.40055 -0.71161,-0.54962 -0.23966,-0.13458 -0.48642,-0.25676 -0.74594,-0.35022 -0.25368,-0.0919 -0.50916,-0.18001 -0.77115,-0.24648 -0.29901,-0.0735 -0.602,-0.13079 -0.91031,-0.14867 -0.29529,-0.0185 -0.59108,-0.0267 -0.8868,-0.0114 -0.27704,0.0129 -0.55391,0.029 -0.83067,0.0469 -0.26429,0.0173 -0.52849,0.0359 -0.7925,0.057 -0.23188,0.0179 -0.46384,0.0344 -0.69631,0.0431 -0.2278,0.01 -0.45581,0.0158 -0.68384,0.0167 -0.22034,-7.1e-4 -0.44083,-0.004 -0.66051,-0.0226 -0.18066,-0.0149 -0.3606,-0.0378 -0.53836,-0.0734 -0.14475,-0.0351 -0.28899,-0.0741 -0.42371,-0.13841 -0.14029,-0.0686 -0.27717,-0.14359 -0.40364,-0.23521 -0.10262,-0.0745 -0.19595,-0.15863 -0.27012,-0.26177 -0.0882,-0.1212 -0.17342,-0.24514 -0.23164,-0.38365 -0.0553,-0.1257 -0.11297,-0.25237 -0.13951,-0.3876 -0.0207,-0.11547 -0.0333,-0.23259 -0.0268,-0.34998 0.0116,-0.11166 0.0415,-0.22037 0.0814,-0.32539 0.0489,-0.1106 0.10679,-0.21784 0.18578,-0.31075 0.0843,-0.10116 0.17735,-0.19482 0.28157,-0.27632 0.10909,-0.0769 0.22098,-0.1528 0.34698,-0.20044 0.16975,-0.063 0.34305,-0.11499 0.52048,-0.15289 0.19735,-0.042 0.39668,-0.0753 0.59821,-0.0902 0.22219,-0.018 0.44498,-0.0323 0.66806,-0.0261 0.23116,0.006 0.46236,0.0176 0.69124,0.052 0.17808,0.0249 0.35715,0.0505 0.52914,0.10415 0.0905,0.0293 0.18099,0.0589 0.26442,0.10503 0.0489,0.0283 0.0988,0.0555 0.1435,0.09 0.0343,0.0272 0.0681,0.055 0.10172,0.083 0.99354,0.84819 2.21127,-0.53588 1.21773,-1.38407 z" />
    <path
       style="fill:#ffffff;fill-opacity:1;stroke:#ffffff;stroke-width:1;stroke-dasharray:none;stroke-opacity:0.326962"
       id="path33"
       d="m 299.90414,87.681099 c 0,-0.0573 0,-0.11455 0,-0.17183 0,-0.10082 0,-0.20164 0,-0.30246 0,-0.14071 0,-0.28141 0,-0.42211 -0.004,-0.18347 -0.0121,-0.3668 -0.0189,-0.55016 -0.006,-0.20069 -0.0187,-0.40107 -0.0317,-0.60139 -0.008,-0.1283 -0.0162,-0.25663 -0.024,-0.38497 -0.0905,-1.50391 -2.21737,-1.3759 -2.12685,0.12801 v 0 c 0.008,0.13142 0.016,0.26282 0.0246,0.39419 0.0117,0.18116 0.0234,0.36234 0.0287,0.54383 0.006,0.15682 0.0126,0.31363 0.0175,0.47049 0,0.1407 0,0.2814 0,0.42211 0,0.10082 0,0.20164 0,0.30246 0,0.0573 0,0.11456 0,0.17183 0,1.50664 2.1307,1.50664 2.1307,0 z" />
    <path
       style="fill:#ffffff;fill-opacity:1;stroke:#ffffff;stroke-width:1;stroke-dasharray:none;stroke-opacity:0.326962"
       id="path34"
       d="m 304.67011,88.159599 c 0.004,0.0561 -0.0151,0.13492 0.0109,0.0174 0.0297,-0.12787 0.0597,-0.25569 0.0926,-0.38279 0.0417,-0.15381 0.0778,-0.30904 0.11831,-0.46315 0.0447,-0.16473 0.0861,-0.33032 0.1258,-0.49631 0.04,-0.16835 0.0765,-0.33752 0.11095,-0.50709 0.0375,-0.18143 0.0679,-0.36415 0.0958,-0.54726 0.0285,-0.19143 0.0533,-0.38336 0.0769,-0.57543 0.0241,-0.18785 0.0478,-0.37575 0.0705,-0.56377 0.018,-0.1545 0.0352,-0.30906 0.0537,-0.46349 0.17945,-1.49592 -1.93609,-1.74969 -2.11553,-0.25378 v 0 c -0.0185,0.15398 -0.0358,0.30809 -0.0536,0.46215 -0.0225,0.18654 -0.0461,0.37294 -0.0699,0.5593 -0.0211,0.17185 -0.0432,0.34358 -0.0686,0.51486 -0.0225,0.14844 -0.0469,0.29658 -0.0774,0.44362 -0.0295,0.14574 -0.0609,0.29109 -0.0952,0.43578 -0.0362,0.15182 -0.0742,0.3032 -0.11518,0.45384 -0.0407,0.15686 -0.0784,0.3145 -0.12036,0.47105 -0.0387,0.15141 -0.0752,0.30339 -0.10997,0.45576 -0.0316,0.14463 -0.0606,0.29061 -0.0604,0.43933 0,1.50664 2.1307,1.50664 2.1307,0 z" />
    <path
       style="fill:#ffffff;fill-opacity:1;stroke:#ffffff;stroke-width:1;stroke-dasharray:none;stroke-opacity:0.326962"
       id="path35"
       d="m 308.85621,90.864979 c -0.002,0.003 -0.008,0.0114 -0.006,0.009 0.0418,-0.0513 0.0793,-0.10705 0.11886,-0.16011 0.0742,-0.0969 0.14988,-0.19262 0.22528,-0.28857 0.0972,-0.12415 0.19289,-0.24942 0.28964,-0.37389 0.11817,-0.15196 0.23001,-0.30863 0.33885,-0.46735 0.096,-0.14513 0.19465,-0.2885 0.29131,-0.4332 0.0897,-0.12989 0.16533,-0.2689 0.25447,-0.39907 0.8385,-1.25174 -0.93173,-2.43756 -1.77023,-1.18582 v 0 c -0.0879,0.13242 -0.16944,0.26878 -0.25632,0.40185 -0.092,0.13785 -0.18617,0.2742 -0.27738,0.41257 -0.0845,0.12374 -0.17162,0.24573 -0.26353,0.36414 -0.0942,0.12136 -0.18761,0.24331 -0.28221,0.36435 -0.0865,0.11014 -0.17349,0.21999 -0.25817,0.33156 -0.0599,0.0804 -0.12067,0.16039 -0.17783,0.24286 -0.83573,1.2536 0.93712,2.43549 1.77285,1.1819 z" />
    <path
       style="fill:#ffffff;fill-opacity:1;stroke:#ffffff;stroke-width:1;stroke-dasharray:none;stroke-opacity:0.326962"
       id="path36"
       d="m 310.23926,94.143899 c 0.0356,-0.01 0.12155,-0.0395 0.17503,-0.0569 0.0611,-0.0207 0.12385,-0.0358 0.18669,-0.0502 1.46773,-0.34017 0.98664,-2.41585 -0.48108,-2.07567 v 0 c -0.12348,0.0288 -0.24637,0.0603 -0.36673,0.10034 -0.0744,0.0244 -0.14858,0.0492 -0.22304,0.0733 -1.42074,0.50144 -0.7116,2.51067 0.70913,2.00923 z" />
  </g>
</svg>
